<?xml version="1.0" encoding="utf-8"?>
<!-- Generator: Adobe Illustrator 23.0.5, SVG Export Plug-In . SVG Version: 6.00 Build 0)  -->
<svg version="1.1" id="Layer_1" xmlns="http://www.w3.org/2000/svg" xmlns:xlink="http://www.w3.org/1999/xlink" x="0px" y="0px"
	 viewBox="0 0 152 91" style="enable-background:new 0 0 152 91;" xml:space="preserve">
<style type="text/css">
	.st0{fill:#2AD19D;}
	.st1{fill:#FFFFFF;}
</style>
<path class="st0" d="M82.7,3.4l-1.1-0.3c-0.7-0.2-1.2-0.7-1.3-1.4L80,0.7l-0.3,1c-0.2,0.6-0.8,1.2-1.3,1.4l-0.9,0.4l0.9,0.3
	c0.5,0.2,1.1,0.7,1.2,1.2c0.3,0.8,0.3,0.9,0.5,0.2c0.1-0.4,0.7-1,1.4-1.3L82.7,3.4z"/>
<path class="st0" d="M56,14.3c0.5-0.5,0.5-0.7,0.1-1.1c-0.7-0.7-0.7-0.7-1.4,0.1C53.9,14.2,55.2,15.1,56,14.3z"/>
<path class="st0" d="M107,14.7c0.5-0.4,0.5-0.7,0-1.1c-0.7-0.7-0.7-0.7-1.3,0C105,14.5,106.2,15.5,107,14.7z"/>
<path class="st0" d="M76.6,25.3c0.8-0.7,0.9-9.1,0.1-9.9c-0.3-0.3-0.6-0.5-0.8-0.5c-1,0-1.3,1.4-1.3,5.5c0,3.4,0.2,4.6,0.7,5
	C75.8,25.7,76.1,25.7,76.6,25.3z"/>
<path class="st0" d="M65.7,26.4c0.3-0.8-1.9-9.1-2.6-9.5c-0.7-0.5-1-0.4-1.6,0.3c-0.4,0.5-0.2,1.6,0.7,5.1c1.1,3.9,1.4,4.5,2.2,4.6
	C65.1,27,65.6,26.8,65.7,26.4z"/>
<path class="st0" d="M89.6,22.3c1-3.5,1.1-4.6,0.7-5.1c-1.2-1.4-1.9-0.5-3.2,4.3c-1.3,4.7-1.2,5.6,0.3,5.4
	C88.2,26.8,88.5,26.2,89.6,22.3z"/>
<path class="st0" d="M30.8,21.5l-1.1-0.3c-0.7-0.2-1.2-0.7-1.3-1.3l-0.2-1l-0.3,0.9c-0.2,0.5-0.7,1.1-1.3,1.4l-0.9,0.5l0.9,0.3
	c0.5,0.2,1.1,0.7,1.2,1.2c0.3,0.9,0.3,0.9,0.6,0.1c0.2-0.4,0.8-1.1,1.3-1.4L30.8,21.5z"/>
<path class="st0" d="M54,31.3c1.8,0.3,1.5-1.2-0.9-5.3c-2.4-4-3.4-4.9-4.2-3.4C48.4,23.6,52.7,31.1,54,31.3z"/>
<path class="st0" d="M97.9,31.3c1.3-0.2,5.8-8,5.1-8.9c-0.7-0.9-1.6-0.8-2.3,0.4C96.5,29.3,95.8,31.6,97.9,31.3z"/>
<path class="st0" d="M123.1,28.7c0.5-0.4,0.5-0.7,0-1.1c-0.7-0.7-0.7-0.7-1.3,0C121.1,28.4,122.3,29.4,123.1,28.7z"/>
<path class="st0" d="M101.1,36.7c-3.4-2.6-9.2-5.5-13.6-6.9c-3.3-1-4.9-1.2-10.5-1.3c-8.7-0.2-13.2,0.8-20.1,4.4
	c-9,4.7-15.9,12.4-19.5,21.9l-1.2,3.2H18.6C2.7,57.9,1,58,0.7,58.7c-0.7,2-3,1.9,74.8,1.9c46.7,0,73.9-0.2,74.6-0.4
	c1.1-0.4,1.5-1.5,0.7-2c-0.2-0.1-8.2-0.3-17.8-0.2l-17.4,0l-1.4-3.7C111.8,47.8,106.7,41,101.1,36.7z"/>
<path class="st0" d="M46.1,37.6c0.3-0.8,0.1-1.1-3.6-4.8c-2.6-2.6-3.5-3.1-4.1-2.5c-0.7,0.7-0.1,1.9,2.9,4.8
	C44.3,38.3,45.6,39,46.1,37.6z"/>
<path class="st0" d="M106.8,38.3c1.1,0,7.1-6.3,7-7.2c-0.3-1.6-1.6-1.1-4.5,1.6c-1.6,1.5-3,3.1-3.3,3.5
	C105.4,37.2,105.9,38.3,106.8,38.3z"/>
<path class="st0" d="M140.6,38.6c0.9-0.3,0.9-0.3,0.1-0.6c-0.4-0.2-1.1-0.8-1.4-1.4l-0.6-1.1l-0.2,1.1c-0.1,0.7-0.5,1.1-1.2,1.3
	l-1.1,0.3l1,0.3c0.6,0.2,1.2,0.8,1.4,1.3l0.4,0.9l0.3-0.9C139.5,39.3,140,38.7,140.6,38.6z"/>
<path class="st0" d="M7.5,42.9c0-0.3,0.3-0.7,0.6-0.8c0.5-0.1,0.4-0.4-0.4-1.2c-0.8-0.8-1.1-0.9-1.1-0.4c0,0.4-0.3,0.8-0.7,0.9
	c-0.6,0.2-0.5,0.4,0.2,1.1C7.3,43.7,7.5,43.8,7.5,42.9z"/>
<path class="st0" d="M38.9,46.9c0.8-1,0.2-1.7-3.6-3.9c-3.8-2.2-4.9-2.5-5.3-1.4c-0.4,1,0.1,1.4,4,3.7C38,47.7,38.1,47.7,38.9,46.9z
	"/>
<path class="st0" d="M117.9,45.3c3.4-1.9,4.2-2.5,4.1-3.2c-0.2-1.5-1.7-1.2-5.4,1c-3.8,2.2-4.5,2.9-3.4,3.9
	C113.7,47.5,114.3,47.3,117.9,45.3z"/>
<path class="st0" d="M17.7,49.7c-0.5-0.2-1-0.7-1-1.1c0-0.4-0.2-0.7-0.4-0.7c-0.2,0-0.4,0.3-0.4,0.6c0,0.4-0.5,0.8-1.1,0.9l-1.1,0.3
	l1,0.5c0.6,0.3,1.2,0.9,1.3,1.4c0.3,0.8,0.3,0.7,0.6-0.1c0.2-0.5,0.7-1.1,1.2-1.2l0.9-0.3L17.7,49.7z"/>
<path class="st0" d="M130.2,51.5l-0.9-0.3c-0.5-0.2-1.1-0.7-1.4-1.3l-0.4-0.9l-0.3,0.9c-0.2,0.5-0.7,1.1-1.3,1.2l-1,0.3l1,0.4
	c0.5,0.2,1.2,0.8,1.3,1.4c0.4,1,0.4,0.9,0.6-0.2c0.2-0.7,0.7-1.2,1.3-1.3L130.2,51.5z"/>
<path class="st0" d="M150.4,90.2c1-0.5,1.1-1.7,0.2-2c-0.7-0.3-92.3-0.5-128-0.3C3.8,88,1,88.1,0.7,88.7C0.6,89,0.7,89.6,1,90
	c0.5,0.6,9.6,0.6,74.6,0.6C125.8,90.6,149.9,90.5,150.4,90.2z"/>
<path class="st0" d="M113.6,56.3H38.1c2.5-9,15.1-28.1,38.1-28.1S110.9,47.3,113.6,56.3z"/>
<path class="st1" d="M104.8,56.3H46.9c1.9-6.9,11.6-21.5,29.2-21.5S102.7,49.4,104.8,56.3z"/>
<path class="st0" d="M15,64.1v20.1h-3.6V64.1H15z M98,64.1v20.1h-3.6V64.1H98z M48.7,64.1l5.2,15.8h0.2l5.2-15.8h4l-7.1,20.1h-4.5
	l-7.1-20.1H48.7z M86.9,74.2c0,2.2-0.4,4-1.2,5.6c-0.8,1.5-1.9,2.7-3.3,3.5c-1.4,0.8-3,1.2-4.7,1.2c-1.8,0-3.3-0.4-4.7-1.2
	c-1.4-0.8-2.5-2-3.3-3.5c-0.8-1.5-1.2-3.4-1.2-5.5c0-2.2,0.4-4,1.2-5.5c0.8-1.5,1.9-2.7,3.3-3.5c1.4-0.8,3-1.2,4.7-1.2
	c1.8,0,3.3,0.4,4.7,1.2c1.4,0.8,2.5,2,3.3,3.5C86.5,70.2,86.9,72,86.9,74.2z M83.2,74.2c0-1.5-0.2-2.8-0.7-3.9
	c-0.5-1.1-1.1-1.8-2-2.4c-0.8-0.5-1.8-0.8-2.9-0.8c-1.1,0-2.1,0.3-2.9,0.8c-0.8,0.5-1.5,1.3-2,2.4c-0.5,1-0.7,2.3-0.7,3.9
	c0,1.5,0.2,2.8,0.7,3.9c0.5,1,1.1,1.8,2,2.4c0.8,0.5,1.8,0.8,2.9,0.8c1.1,0,2.1-0.3,2.9-0.8c0.8-0.5,1.5-1.3,2-2.4
	C83,77,83.2,75.7,83.2,74.2z M37.9,64.1v20.1h-3.2l-9.5-13.7H25v13.7h-3.6V64.1h3.3l9.4,13.7h0.2V64.1H37.9z M130.4,84.2V64.1h13.1
	v3h-9.4v5.4h8.7v3h-8.7v5.5h9.5v3H130.4z"/>
<g>
	<path class="st0" d="M121.8,83.8c-0.8,0.4-2.5,0.8-4.8,0.8c-6.5,0-9.9-4.1-9.9-9.4c0-6.4,4.6-10,10.3-10c2.2,0,3.9,0.4,4.6,0.8
		l-0.9,3.4c-0.9-0.4-2.1-0.7-3.6-0.7c-3.4,0-6,2-6,6.2c0,3.8,2.2,6.2,6,6.2c1.3,0,2.7-0.3,3.6-0.6L121.8,83.8z"/>
</g>
</svg>
